<mxfile host="app.diagrams.net" modified="2021-07-01T15:03:27.301Z" agent="5.0 (Windows NT 10.0; Win64; x64) AppleWebKit/537.36 (KHTML, like Gecko) Chrome/91.0.4472.114 Safari/537.36" etag="w8VsaN45sN70eBHRnSQD" version="14.8.3" type="github">
  <diagram id="6a731a19-8d31-9384-78a2-239565b7b9f0" name="Page-1">
    <mxGraphModel dx="1303" dy="632" grid="1" gridSize="10" guides="1" tooltips="1" connect="1" arrows="1" fold="1" page="1" pageScale="1" pageWidth="1169" pageHeight="827" background="none" math="0" shadow="0">
      <root>
        <mxCell id="0" />
        <mxCell id="1" parent="0" />
        <mxCell id="1745" value="" style="edgeStyle=none;rounded=0;jumpStyle=none;html=1;shadow=0;labelBackgroundColor=none;startArrow=none;startFill=0;endArrow=classic;endFill=1;jettySize=auto;orthogonalLoop=1;strokeColor=#2F5B7C;strokeWidth=3;fontFamily=Helvetica;fontSize=16;fontColor=#23445D;spacing=5;" parent="1" source="1749" edge="1">
          <mxGeometry relative="1" as="geometry">
            <mxPoint x="570" y="310" as="targetPoint" />
          </mxGeometry>
        </mxCell>
        <mxCell id="1746" value="" style="edgeStyle=none;rounded=0;jumpStyle=none;html=1;shadow=0;labelBackgroundColor=none;startArrow=none;startFill=0;endArrow=classic;endFill=1;jettySize=auto;orthogonalLoop=1;strokeColor=#2F5B7C;strokeWidth=3;fontFamily=Helvetica;fontSize=16;fontColor=#23445D;spacing=5;entryX=0;entryY=0.5;entryDx=0;entryDy=0;" parent="1" source="1749" target="1771" edge="1">
          <mxGeometry relative="1" as="geometry">
            <mxPoint x="740" y="416" as="targetPoint" />
          </mxGeometry>
        </mxCell>
        <mxCell id="1747" value="" style="edgeStyle=none;rounded=0;jumpStyle=none;html=1;shadow=0;labelBackgroundColor=none;startArrow=none;startFill=0;endArrow=classic;endFill=1;jettySize=auto;orthogonalLoop=1;strokeColor=#2F5B7C;strokeWidth=3;fontFamily=Helvetica;fontSize=16;fontColor=#23445D;spacing=5;entryX=0.5;entryY=0;entryDx=0;entryDy=0;" parent="1" source="1749" target="1760" edge="1">
          <mxGeometry relative="1" as="geometry">
            <mxPoint x="570" y="520" as="targetPoint" />
          </mxGeometry>
        </mxCell>
        <mxCell id="1748" value="" style="edgeStyle=none;rounded=0;jumpStyle=none;html=1;shadow=0;labelBackgroundColor=none;startArrow=none;startFill=0;endArrow=classic;endFill=1;jettySize=auto;orthogonalLoop=1;strokeColor=#2F5B7C;strokeWidth=3;fontFamily=Helvetica;fontSize=16;fontColor=#23445D;spacing=5;entryX=1;entryY=0.5;entryDx=0;entryDy=0;" parent="1" source="1749" target="1753" edge="1">
          <mxGeometry relative="1" as="geometry">
            <mxPoint x="440" y="415" as="targetPoint" />
          </mxGeometry>
        </mxCell>
        <mxCell id="1749" value="THE EXPENDITURE CYCLE: PURCHASING TO CASH DISBURSEMENT" style="rounded=1;whiteSpace=wrap;html=1;shadow=0;labelBackgroundColor=none;strokeColor=none;strokeWidth=3;fillColor=#2F5B7C;fontFamily=Helvetica;fontSize=16;fontColor=#FFFFFF;align=center;fontStyle=1;spacing=5;arcSize=7;perimeterSpacing=2;" parent="1" vertex="1">
          <mxGeometry x="460" y="359" width="225" height="110" as="geometry" />
        </mxCell>
        <mxCell id="1750" value="" style="edgeStyle=none;rounded=1;jumpStyle=none;html=1;shadow=0;labelBackgroundColor=none;startArrow=none;startFill=0;jettySize=auto;orthogonalLoop=1;strokeColor=#E85642;strokeWidth=3;fontFamily=Helvetica;fontSize=14;fontColor=#FFFFFF;spacing=5;fontStyle=1;fillColor=#b0e3e6;" parent="1" source="1753" target="1756" edge="1">
          <mxGeometry relative="1" as="geometry" />
        </mxCell>
        <mxCell id="1751" value="" style="edgeStyle=none;rounded=1;jumpStyle=none;html=1;shadow=0;labelBackgroundColor=none;startArrow=none;startFill=0;jettySize=auto;orthogonalLoop=1;strokeColor=#E85642;strokeWidth=3;fontFamily=Helvetica;fontSize=14;fontColor=#FFFFFF;spacing=5;fontStyle=1;fillColor=#b0e3e6;" parent="1" source="1753" target="1755" edge="1">
          <mxGeometry relative="1" as="geometry" />
        </mxCell>
        <mxCell id="1752" value="" style="edgeStyle=none;rounded=1;jumpStyle=none;html=1;shadow=0;labelBackgroundColor=none;startArrow=none;startFill=0;jettySize=auto;orthogonalLoop=1;strokeWidth=3;fontFamily=Helvetica;fontSize=14;fontColor=#FFFFFF;spacing=5;fontStyle=1;fillColor=#b0e3e6;strokeColor=#A680B8;exitX=0;exitY=1;exitDx=0;exitDy=0;" parent="1" source="I-lBR72IQQ-qCt-pbnix-1782" target="1754" edge="1">
          <mxGeometry relative="1" as="geometry">
            <mxPoint x="410" y="570" as="sourcePoint" />
            <mxPoint x="310" y="640" as="targetPoint" />
          </mxGeometry>
        </mxCell>
        <mxCell id="1753" value="Pengeluaran Kas" style="rounded=1;whiteSpace=wrap;html=1;shadow=0;labelBackgroundColor=none;strokeColor=none;strokeWidth=3;fillColor=#e85642;fontFamily=Helvetica;fontSize=14;fontColor=#FFFFFF;align=center;spacing=5;fontStyle=1;arcSize=7;perimeterSpacing=2;" parent="1" vertex="1">
          <mxGeometry x="290" y="350" width="130" height="40" as="geometry" />
        </mxCell>
        <mxCell id="1754" value="Theories" style="rounded=1;whiteSpace=wrap;html=1;shadow=0;labelBackgroundColor=none;strokeColor=none;strokeWidth=3;fontFamily=Helvetica;fontSize=14;fontColor=#FFFFFF;align=center;spacing=5;fontStyle=0;arcSize=7;perimeterSpacing=2;fillColor=#C3ABD0;" parent="1" vertex="1">
          <mxGeometry x="65" y="670" width="195" height="100" as="geometry" />
        </mxCell>
        <mxCell id="1755" value="Appeal" style="rounded=1;whiteSpace=wrap;html=1;shadow=0;labelBackgroundColor=none;strokeColor=none;strokeWidth=3;fillColor=#f08e81;fontFamily=Helvetica;fontSize=14;fontColor=#FFFFFF;align=center;spacing=5;fontStyle=0;arcSize=7;perimeterSpacing=2;" parent="1" vertex="1">
          <mxGeometry x="29" y="444" width="220" height="180" as="geometry" />
        </mxCell>
        <mxCell id="1756" value="&lt;div style=&quot;font-size: 10px&quot;&gt;&lt;font style=&quot;font-size: 10px&quot; color=&quot;#000000&quot;&gt;Harus ada pemisahan fungsi antara penyimpanan dengan otorisasi dan&amp;nbsp;&lt;/font&gt;&lt;span style=&quot;color: rgb(0 , 0 , 0)&quot;&gt;pencatatan.&lt;/span&gt;&lt;/div&gt;&lt;div style=&quot;font-size: 10px&quot;&gt;&lt;span style=&quot;color: rgb(0 , 0 , 0)&quot;&gt;1. F&lt;/span&gt;&lt;font color=&quot;#000000&quot;&gt;&lt;span&gt;ungsi otorisasi&amp;nbsp;&lt;/span&gt;&lt;span&gt;dijalankan oleh bagian pembelian.&lt;/span&gt;&lt;/font&gt;&lt;/div&gt;&lt;div style=&quot;font-size: 10px&quot;&gt;&lt;font color=&quot;#000000&quot;&gt;2. Fungsi pencatatan dijalankan oleh bagian utang.&lt;/font&gt;&lt;/div&gt;" style="rounded=1;whiteSpace=wrap;html=1;shadow=0;labelBackgroundColor=none;strokeColor=none;strokeWidth=3;fillColor=#f08e81;fontFamily=Helvetica;fontSize=14;fontColor=#FFFFFF;align=left;spacing=5;fontStyle=0;arcSize=7;perimeterSpacing=2;" parent="1" vertex="1">
          <mxGeometry x="50" y="254.5" width="180" height="115.5" as="geometry" />
        </mxCell>
        <mxCell id="1757" value="" style="edgeStyle=none;rounded=0;jumpStyle=none;html=1;shadow=0;labelBackgroundColor=none;startArrow=none;startFill=0;endArrow=classic;endFill=1;jettySize=auto;orthogonalLoop=1;strokeColor=#1699D3;strokeWidth=3;fontFamily=Helvetica;fontSize=14;fontColor=#FFFFFF;spacing=5;" parent="1" source="1760" target="1763" edge="1">
          <mxGeometry relative="1" as="geometry" />
        </mxCell>
        <mxCell id="1758" value="" style="edgeStyle=none;rounded=0;jumpStyle=none;html=1;shadow=0;labelBackgroundColor=none;startArrow=none;startFill=0;endArrow=classic;endFill=1;jettySize=auto;orthogonalLoop=1;strokeColor=#1699D3;strokeWidth=3;fontFamily=Helvetica;fontSize=14;fontColor=#FFFFFF;spacing=5;" parent="1" source="1760" target="1762" edge="1">
          <mxGeometry relative="1" as="geometry" />
        </mxCell>
        <mxCell id="1760" value="&lt;font color=&quot;#000000&quot;&gt;Penerimaan&lt;/font&gt;" style="rounded=1;whiteSpace=wrap;html=1;shadow=0;labelBackgroundColor=none;strokeColor=none;strokeWidth=3;fillColor=#1699d3;fontFamily=Helvetica;fontSize=14;fontColor=#FFFFFF;align=center;spacing=5;fontStyle=1;arcSize=7;perimeterSpacing=2;" parent="1" vertex="1">
          <mxGeometry x="650" y="510" width="100" height="30" as="geometry" />
        </mxCell>
        <mxCell id="1762" value="Budget" style="rounded=1;whiteSpace=wrap;html=1;shadow=0;labelBackgroundColor=none;strokeColor=none;strokeWidth=3;fillColor=#64bbe2;fontFamily=Helvetica;fontSize=14;fontColor=#FFFFFF;align=center;spacing=5;arcSize=7;perimeterSpacing=2;" parent="1" vertex="1">
          <mxGeometry x="760" y="620" width="170" height="160" as="geometry" />
        </mxCell>
        <mxCell id="1763" value="&lt;div style=&quot;font-size: 10px&quot;&gt;&lt;font color=&quot;#000000&quot;&gt;&lt;font style=&quot;font-size: 10px&quot;&gt;1. Membandingkan nomor pesanan pembelian pada slip pengepakan pemasok&amp;nbsp;&lt;/font&gt;&lt;span&gt;dengan purchase order.&lt;/span&gt;&lt;/font&gt;&lt;/div&gt;&lt;div style=&quot;font-size: 10px&quot;&gt;&lt;font color=&quot;#000000&quot;&gt;&lt;span&gt;2. Memverifikasi bahwa barang yang datang&amp;nbsp;&lt;/span&gt;&lt;span&gt;merupakan barang yang dipesan.&lt;/span&gt;&lt;/font&gt;&lt;/div&gt;" style="rounded=1;whiteSpace=wrap;html=1;shadow=0;labelBackgroundColor=none;strokeColor=none;strokeWidth=3;fillColor=#64bbe2;fontFamily=Helvetica;fontSize=14;fontColor=#FFFFFF;align=left;spacing=5;arcSize=7;perimeterSpacing=2;" parent="1" vertex="1">
          <mxGeometry x="585" y="580" width="155" height="100" as="geometry" />
        </mxCell>
        <mxCell id="1764" value="&lt;font color=&quot;#000000&quot;&gt;Pendahuluan&lt;/font&gt;" style="rounded=1;whiteSpace=wrap;html=1;shadow=0;labelBackgroundColor=none;strokeColor=none;strokeWidth=3;fillColor=#F08705;fontFamily=Helvetica;fontSize=14;fontColor=#FFFFFF;align=center;spacing=5;fontStyle=1;arcSize=7;perimeterSpacing=2;" parent="1" vertex="1">
          <mxGeometry x="512.5" y="276.75" width="115" height="35.5" as="geometry" />
        </mxCell>
        <mxCell id="1765" value="Aims&lt;br&gt;" style="rounded=1;whiteSpace=wrap;html=1;shadow=0;labelBackgroundColor=none;strokeColor=none;strokeWidth=3;fillColor=#f5af58;fontFamily=Helvetica;fontSize=14;fontColor=#FFFFFF;align=center;spacing=5;arcSize=7;perimeterSpacing=2;" parent="1" vertex="1">
          <mxGeometry x="560" y="50" width="220" height="100" as="geometry" />
        </mxCell>
        <mxCell id="1766" value="" style="edgeStyle=none;rounded=0;jumpStyle=none;html=1;shadow=0;labelBackgroundColor=none;startArrow=none;startFill=0;endArrow=classic;endFill=1;jettySize=auto;orthogonalLoop=1;strokeColor=#F08705;strokeWidth=3;fontFamily=Helvetica;fontSize=14;fontColor=#FFFFFF;spacing=5;" parent="1" source="1764" target="1765" edge="1">
          <mxGeometry relative="1" as="geometry" />
        </mxCell>
        <mxCell id="1769" value="&lt;div style=&quot;font-size: 10px&quot;&gt;&lt;font style=&quot;font-size: 10px&quot; color=&quot;#000000&quot;&gt;Siklus pengeluaran adalah serangkaian aktivitas bisnis dan operasi pemrosesan&lt;/font&gt;&lt;/div&gt;&lt;div style=&quot;font-size: 10px&quot;&gt;&lt;font style=&quot;font-size: 10px&quot; color=&quot;#000000&quot;&gt;informasi terkait yang terus-menerus berhubungan dengan pembelian serta pembayaran&lt;/font&gt;&lt;/div&gt;&lt;div style=&quot;font-size: 10px&quot;&gt;&lt;font style=&quot;font-size: 10px&quot; color=&quot;#000000&quot;&gt;barang dan jasa.&lt;/font&gt;&lt;/div&gt;" style="rounded=1;whiteSpace=wrap;html=1;shadow=0;labelBackgroundColor=none;strokeColor=none;strokeWidth=3;fillColor=#f5af58;fontFamily=Helvetica;fontSize=14;fontColor=#FFFFFF;align=center;spacing=5;arcSize=7;perimeterSpacing=2;" parent="1" vertex="1">
          <mxGeometry x="365" y="107.5" width="170" height="109.5" as="geometry" />
        </mxCell>
        <mxCell id="1770" value="" style="edgeStyle=none;rounded=0;jumpStyle=none;html=1;shadow=0;labelBackgroundColor=none;startArrow=none;startFill=0;endArrow=classic;endFill=1;jettySize=auto;orthogonalLoop=1;strokeColor=#F08705;strokeWidth=3;fontFamily=Helvetica;fontSize=14;fontColor=#FFFFFF;spacing=5;" parent="1" source="1764" target="1769" edge="1">
          <mxGeometry relative="1" as="geometry" />
        </mxCell>
        <mxCell id="1771" value="&lt;font color=&quot;#000000&quot;&gt;Order Material, Supplies, and Service&lt;/font&gt;" style="rounded=1;whiteSpace=wrap;html=1;shadow=0;labelBackgroundColor=none;strokeColor=none;strokeWidth=3;fillColor=#12aab5;fontFamily=Helvetica;fontSize=14;fontColor=#FFFFFF;align=center;spacing=5;fontStyle=1;arcSize=7;perimeterSpacing=2;" parent="1" vertex="1">
          <mxGeometry x="725" y="312.25" width="115" height="60" as="geometry" />
        </mxCell>
        <mxCell id="1772" value="&lt;font style=&quot;font-size: 12px&quot; color=&quot;#000000&quot;&gt;Memilih Pemasok&lt;/font&gt;" style="rounded=1;whiteSpace=wrap;html=1;shadow=0;labelBackgroundColor=none;strokeColor=none;strokeWidth=3;fillColor=#61c6ce;fontFamily=Helvetica;fontSize=14;fontColor=#FFFFFF;align=center;spacing=5;fontStyle=0;arcSize=7;perimeterSpacing=2;" parent="1" vertex="1">
          <mxGeometry x="804" y="445.5" width="115" height="35.5" as="geometry" />
        </mxCell>
        <mxCell id="1773" value="" style="edgeStyle=none;rounded=1;jumpStyle=none;html=1;shadow=0;labelBackgroundColor=none;startArrow=none;startFill=0;jettySize=auto;orthogonalLoop=1;strokeColor=#12AAB5;strokeWidth=3;fontFamily=Helvetica;fontSize=14;fontColor=#FFFFFF;spacing=5;fontStyle=1;fillColor=#b0e3e6;" parent="1" source="1771" target="1772" edge="1">
          <mxGeometry relative="1" as="geometry" />
        </mxCell>
        <mxCell id="1774" value="Media" style="rounded=1;whiteSpace=wrap;html=1;shadow=0;labelBackgroundColor=none;strokeColor=none;strokeWidth=3;fillColor=#61c6ce;fontFamily=Helvetica;fontSize=14;fontColor=#FFFFFF;align=center;spacing=5;fontStyle=0;arcSize=7;perimeterSpacing=2;" parent="1" vertex="1">
          <mxGeometry x="949.5" y="200" width="210.5" height="90" as="geometry" />
        </mxCell>
        <mxCell id="1775" value="" style="edgeStyle=none;rounded=1;jumpStyle=none;html=1;shadow=0;labelBackgroundColor=none;startArrow=none;startFill=0;jettySize=auto;orthogonalLoop=1;strokeColor=#12AAB5;strokeWidth=3;fontFamily=Helvetica;fontSize=14;fontColor=#FFFFFF;spacing=5;fontStyle=1;fillColor=#b0e3e6;" parent="1" edge="1">
          <mxGeometry relative="1" as="geometry">
            <mxPoint x="920" y="250" as="sourcePoint" />
            <mxPoint x="950" y="250" as="targetPoint" />
          </mxGeometry>
        </mxCell>
        <mxCell id="1776" value="&lt;div style=&quot;text-align: left&quot;&gt;&lt;font color=&quot;#000000&quot;&gt;&lt;span style=&quot;font-size: 10px&quot;&gt;Pendekatan untuk mengelola persediaan:&lt;/span&gt;&lt;/font&gt;&lt;/div&gt;&lt;font&gt;&lt;font color=&quot;#000000&quot;&gt;&lt;span style=&quot;font-size: 10px&quot;&gt;&lt;div style=&quot;text-align: left&quot;&gt;&lt;span&gt;1. Economic Order Quantity (EOQ)&lt;/span&gt;&lt;/div&gt;&lt;div style=&quot;text-align: left&quot;&gt;&lt;span&gt;2. Material RequirementsPlanning (MRP)&lt;/span&gt;&lt;/div&gt;&lt;div style=&quot;text-align: left&quot;&gt;&lt;span&gt;3. Just in Time (JIT)&lt;/span&gt;&lt;/div&gt;&lt;/span&gt;&lt;/font&gt;&lt;/font&gt;" style="rounded=1;whiteSpace=wrap;html=1;shadow=0;labelBackgroundColor=none;strokeColor=none;strokeWidth=3;fillColor=#61c6ce;fontFamily=Helvetica;fontSize=14;fontColor=#FFFFFF;align=center;spacing=5;fontStyle=0;arcSize=7;perimeterSpacing=2;" parent="1" vertex="1">
          <mxGeometry x="919" y="100" width="211" height="65" as="geometry" />
        </mxCell>
        <mxCell id="1778" value="&lt;font style=&quot;font-size: 12px&quot; color=&quot;#000000&quot;&gt;Mengidentifikasi Apa, Kapan, dan Berapa Banyak untuk Pembelian&lt;/font&gt;" style="rounded=1;whiteSpace=wrap;html=1;shadow=0;labelBackgroundColor=none;strokeColor=none;strokeWidth=3;fillColor=#61c6ce;fontFamily=Helvetica;fontSize=14;fontColor=#FFFFFF;align=center;spacing=5;fontStyle=0;arcSize=7;perimeterSpacing=2;" parent="1" vertex="1">
          <mxGeometry x="769" y="217" width="150" height="54.5" as="geometry" />
        </mxCell>
        <mxCell id="1779" value="" style="edgeStyle=none;rounded=1;jumpStyle=none;html=1;shadow=0;labelBackgroundColor=none;startArrow=none;startFill=0;jettySize=auto;orthogonalLoop=1;strokeColor=#12AAB5;strokeWidth=3;fontFamily=Helvetica;fontSize=14;fontColor=#FFFFFF;spacing=5;fontStyle=1;fillColor=#b0e3e6;" parent="1" source="1771" target="1778" edge="1">
          <mxGeometry relative="1" as="geometry" />
        </mxCell>
        <mxCell id="I-lBR72IQQ-qCt-pbnix-1782" value="&lt;font color=&quot;#000000&quot;&gt;Menyetujui Faktur Pemasok&lt;/font&gt;" style="rounded=1;whiteSpace=wrap;html=1;shadow=0;labelBackgroundColor=none;strokeColor=none;strokeWidth=3;fontFamily=Helvetica;fontSize=14;fontColor=#FFFFFF;align=center;spacing=5;fontStyle=1;arcSize=7;perimeterSpacing=2;fillColor=#A680B8;" parent="1" vertex="1">
          <mxGeometry x="380" y="510" width="120" height="40" as="geometry" />
        </mxCell>
        <mxCell id="I-lBR72IQQ-qCt-pbnix-1787" value="" style="edgeStyle=none;rounded=1;jumpStyle=none;html=1;shadow=0;labelBackgroundColor=none;startArrow=none;startFill=0;jettySize=auto;orthogonalLoop=1;strokeColor=#12AAB5;strokeWidth=3;fontFamily=Helvetica;fontSize=14;fontColor=#FFFFFF;spacing=5;fontStyle=1;fillColor=#b0e3e6;" parent="1" edge="1">
          <mxGeometry relative="1" as="geometry">
            <mxPoint x="871.9999999999998" y="217.19974358974366" as="sourcePoint" />
            <mxPoint x="920" y="160" as="targetPoint" />
          </mxGeometry>
        </mxCell>
        <mxCell id="I-lBR72IQQ-qCt-pbnix-1789" value="" style="edgeStyle=none;rounded=1;jumpStyle=none;html=1;shadow=0;labelBackgroundColor=none;startArrow=none;startFill=0;jettySize=auto;orthogonalLoop=1;strokeColor=#12AAB5;strokeWidth=3;fontFamily=Helvetica;fontSize=14;fontColor=#FFFFFF;spacing=5;fontStyle=1;fillColor=#b0e3e6;exitX=0.897;exitY=0.101;exitDx=0;exitDy=0;exitPerimeter=0;" parent="1" source="1772" edge="1">
          <mxGeometry relative="1" as="geometry">
            <mxPoint x="920" y="440" as="sourcePoint" />
            <mxPoint x="950" y="400" as="targetPoint" />
          </mxGeometry>
        </mxCell>
        <mxCell id="I-lBR72IQQ-qCt-pbnix-1790" value="&lt;div style=&quot;text-align: left&quot;&gt;&lt;font color=&quot;#000000&quot;&gt;&lt;span style=&quot;font-size: 10px&quot;&gt;Faktor yang harus dipertimbangkan::&lt;/span&gt;&lt;/font&gt;&lt;/div&gt;&lt;font&gt;&lt;font color=&quot;#000000&quot;&gt;&lt;span style=&quot;font-size: 10px&quot;&gt;&lt;div style=&quot;text-align: left&quot;&gt;&lt;span&gt;1. Harga&lt;/span&gt;&lt;/div&gt;&lt;div style=&quot;text-align: left&quot;&gt;&lt;span&gt;2. Kualitas Bahan Baku (persediaan)&lt;/span&gt;&lt;/div&gt;&lt;div style=&quot;text-align: left&quot;&gt;&lt;span&gt;3. Keandalan dalam pengiriman&lt;/span&gt;&lt;/div&gt;&lt;/span&gt;&lt;/font&gt;&lt;/font&gt;" style="rounded=1;whiteSpace=wrap;html=1;shadow=0;labelBackgroundColor=none;strokeColor=none;strokeWidth=3;fillColor=#61c6ce;fontFamily=Helvetica;fontSize=14;fontColor=#FFFFFF;align=center;spacing=5;fontStyle=0;arcSize=7;perimeterSpacing=2;" parent="1" vertex="1">
          <mxGeometry x="948.5" y="335" width="180.5" height="65" as="geometry" />
        </mxCell>
        <mxCell id="I-lBR72IQQ-qCt-pbnix-1791" value="" style="edgeStyle=none;rounded=1;jumpStyle=none;html=1;shadow=0;labelBackgroundColor=none;startArrow=none;startFill=0;jettySize=auto;orthogonalLoop=1;strokeColor=#12AAB5;strokeWidth=3;fontFamily=Helvetica;fontSize=14;fontColor=#FFFFFF;spacing=5;fontStyle=1;fillColor=#b0e3e6;exitX=1;exitY=0.5;exitDx=0;exitDy=0;" parent="1" source="1772" edge="1">
          <mxGeometry relative="1" as="geometry">
            <mxPoint x="930" y="259.9999999999999" as="sourcePoint" />
            <mxPoint x="950" y="463" as="targetPoint" />
          </mxGeometry>
        </mxCell>
        <mxCell id="I-lBR72IQQ-qCt-pbnix-1793" value="Media" style="rounded=1;whiteSpace=wrap;html=1;shadow=0;labelBackgroundColor=none;strokeColor=none;strokeWidth=3;fillColor=#61c6ce;fontFamily=Helvetica;fontSize=14;fontColor=#FFFFFF;align=center;spacing=5;fontStyle=0;arcSize=7;perimeterSpacing=2;" parent="1" vertex="1">
          <mxGeometry x="949.5" y="420" width="170.5" height="230" as="geometry" />
        </mxCell>
        <mxCell id="IK1FJ8r6AnBBn-x5Vm_D-1786" value="" style="edgeStyle=none;rounded=0;jumpStyle=none;html=1;shadow=0;labelBackgroundColor=none;startArrow=none;startFill=0;endArrow=classic;endFill=1;jettySize=auto;orthogonalLoop=1;strokeColor=#2F5B7C;strokeWidth=3;fontFamily=Helvetica;fontSize=16;fontColor=#23445D;spacing=5;" edge="1" parent="1" target="I-lBR72IQQ-qCt-pbnix-1782">
          <mxGeometry relative="1" as="geometry">
            <mxPoint x="710" y="518" as="targetPoint" />
            <mxPoint x="500" y="470" as="sourcePoint" />
          </mxGeometry>
        </mxCell>
        <mxCell id="IK1FJ8r6AnBBn-x5Vm_D-1787" value="" style="edgeStyle=none;rounded=1;jumpStyle=none;html=1;shadow=0;labelBackgroundColor=none;startArrow=none;startFill=0;jettySize=auto;orthogonalLoop=1;strokeWidth=3;fontFamily=Helvetica;fontSize=14;fontColor=#FFFFFF;spacing=5;fontStyle=1;fillColor=#b0e3e6;strokeColor=#A680B8;" edge="1" parent="1" target="IK1FJ8r6AnBBn-x5Vm_D-1788">
          <mxGeometry relative="1" as="geometry">
            <mxPoint x="480" y="552" as="sourcePoint" />
            <mxPoint x="510" y="660" as="targetPoint" />
          </mxGeometry>
        </mxCell>
        <mxCell id="IK1FJ8r6AnBBn-x5Vm_D-1788" value="&lt;div style=&quot;font-size: 10px&quot;&gt;&lt;font style=&quot;font-size: 10px&quot; color=&quot;#000000&quot;&gt;Departemen bagian utang bertanggung&amp;nbsp;&lt;/font&gt;&lt;span style=&quot;color: rgb(0 , 0 , 0)&quot;&gt;jawab untuk mencocokkannya dengan purchase order dan receiving report.&lt;/span&gt;&lt;/div&gt;" style="rounded=1;whiteSpace=wrap;html=1;shadow=0;labelBackgroundColor=none;strokeColor=none;strokeWidth=3;fontFamily=Helvetica;fontSize=14;fontColor=#FFFFFF;align=left;spacing=5;fontStyle=0;arcSize=7;perimeterSpacing=2;fillColor=#C3ABD0;" vertex="1" parent="1">
          <mxGeometry x="460" y="730" width="150" height="70" as="geometry" />
        </mxCell>
        <mxCell id="IK1FJ8r6AnBBn-x5Vm_D-1789" value="" style="edgeStyle=none;rounded=1;jumpStyle=none;html=1;shadow=0;labelBackgroundColor=none;startArrow=none;startFill=0;jettySize=auto;orthogonalLoop=1;strokeWidth=3;fontFamily=Helvetica;fontSize=14;fontColor=#FFFFFF;spacing=5;fontStyle=1;fillColor=#b0e3e6;strokeColor=#A680B8;exitX=0.387;exitY=1.015;exitDx=0;exitDy=0;exitPerimeter=0;entryX=0.545;entryY=0.022;entryDx=0;entryDy=0;entryPerimeter=0;" edge="1" parent="1" source="I-lBR72IQQ-qCt-pbnix-1782" target="IK1FJ8r6AnBBn-x5Vm_D-1790">
          <mxGeometry relative="1" as="geometry">
            <mxPoint x="388" y="562" as="sourcePoint" />
            <mxPoint x="400" y="640" as="targetPoint" />
          </mxGeometry>
        </mxCell>
        <mxCell id="IK1FJ8r6AnBBn-x5Vm_D-1790" value="&lt;div style=&quot;text-align: left ; font-size: 10px&quot;&gt;&lt;font style=&quot;font-size: 10px&quot; color=&quot;#000000&quot;&gt;Ada dua cara&amp;nbsp;&lt;/font&gt;&lt;span style=&quot;color: rgb(0 , 0 , 0)&quot;&gt;memproses faktur,yaitu:&lt;/span&gt;&lt;/div&gt;&lt;div style=&quot;text-align: left ; font-size: 10px&quot;&gt;&lt;font style=&quot;font-size: 10px&quot; color=&quot;#000000&quot;&gt;1. Non voucher system,&lt;br&gt;&lt;/font&gt;&lt;/div&gt;&lt;div style=&quot;text-align: left ; font-size: 10px&quot;&gt;&lt;font style=&quot;font-size: 10px&quot; color=&quot;#000000&quot;&gt;2. Voucher system,&lt;/font&gt;&lt;br&gt;&lt;/div&gt;" style="rounded=1;whiteSpace=wrap;html=1;shadow=0;labelBackgroundColor=none;strokeColor=none;strokeWidth=3;fontFamily=Helvetica;fontSize=14;fontColor=#FFFFFF;align=center;spacing=5;fontStyle=0;arcSize=7;perimeterSpacing=2;fillColor=#C3ABD0;" vertex="1" parent="1">
          <mxGeometry x="290" y="661.3" width="190" height="50" as="geometry" />
        </mxCell>
        <mxCell id="IK1FJ8r6AnBBn-x5Vm_D-1794" value="&lt;b style=&quot;font-size: 15px&quot;&gt;Robiatul Ni&#39;mah&lt;br&gt;24 / 4-44&lt;br&gt;1302191615&lt;/b&gt;" style="rounded=1;whiteSpace=wrap;html=1;fillColor=#fff2cc;strokeColor=#d6b656;align=center;" vertex="1" parent="1">
          <mxGeometry x="76" y="120" width="200" height="60" as="geometry" />
        </mxCell>
        <mxCell id="IK1FJ8r6AnBBn-x5Vm_D-1795" value="&lt;font size=&quot;1&quot;&gt;&lt;b style=&quot;font-size: 35px&quot;&gt;MINDMAP TM 10&lt;/b&gt;&lt;/font&gt;" style="text;html=1;align=center;verticalAlign=middle;resizable=0;points=[];autosize=1;strokeColor=none;" vertex="1" parent="1">
          <mxGeometry x="29" y="60" width="290" height="30" as="geometry" />
        </mxCell>
      </root>
    </mxGraphModel>
  </diagram>
</mxfile>
